<svg width="25" height="24" viewBox="0 0 25 24" fill="none" xmlns="http://www.w3.org/2000/svg">
<g clip-path="url(#clip0_6_2803)">
<g clip-path="url(#clip1_6_2803)">
<path d="M16.5312 12C16.5312 13.0406 16.475 14.0438 16.3766 15H7.68594C7.58281 14.0438 7.53125 13.0406 7.53125 12C7.53125 10.9594 7.5875 9.95625 7.68594 9H16.3766C16.4797 9.95625 16.5312 10.9594 16.5312 12ZM17.8812 9H23.6516C23.9 9.96094 24.0312 10.9641 24.0312 12C24.0312 13.0359 23.9 14.0391 23.6516 15H17.8812C17.9797 14.0344 18.0312 13.0312 18.0312 12C18.0312 10.9688 17.9797 9.96563 17.8812 9ZM23.1594 7.5H17.6891C17.2203 4.50469 16.2922 1.99688 15.0969 0.39375C18.7672 1.36406 21.7531 4.02656 23.1547 7.5H23.1594ZM16.1703 7.5H7.89219C8.17812 5.79375 8.61875 4.28438 9.15781 3.06094C9.65 1.95469 10.1984 1.15313 10.7281 0.646875C11.2531 0.15 11.6891 0 12.0312 0C12.3734 0 12.8094 0.15 13.3344 0.646875C13.8641 1.15313 14.4125 1.95469 14.9047 3.06094C15.4484 4.27969 15.8844 5.78906 16.1703 7.5ZM6.37344 7.5H0.903125C2.30938 4.02656 5.29063 1.36406 8.96563 0.39375C7.77031 1.99688 6.84219 4.50469 6.37344 7.5ZM0.410938 9H6.18125C6.08281 9.96563 6.03125 10.9688 6.03125 12C6.03125 13.0312 6.08281 14.0344 6.18125 15H0.410938C0.1625 14.0391 0.03125 13.0359 0.03125 12C0.03125 10.9641 0.1625 9.96094 0.410938 9ZM9.15781 20.9344C8.61406 19.7156 8.17812 18.2063 7.89219 16.5H16.1703C15.8844 18.2063 15.4437 19.7156 14.9047 20.9344C14.4125 22.0406 13.8641 22.8422 13.3344 23.3484C12.8094 23.85 12.3734 24 12.0312 24C11.6891 24 11.2531 23.85 10.7281 23.3531C10.1984 22.8469 9.65 22.0453 9.15781 20.9391V20.9344ZM6.37344 16.5C6.84219 19.4953 7.77031 22.0031 8.96563 23.6063C5.29063 22.6359 2.30938 19.9734 0.903125 16.5H6.37344ZM23.1594 16.5C21.7531 19.9734 18.7719 22.6359 15.1016 23.6063C16.2969 22.0031 17.2203 19.4953 17.6937 16.5H23.1594Z" fill="#4F46E5"/>
</g>
</g>
<defs>
<clipPath id="clip0_6_2803">
<rect width="24" height="24" fill="white" transform="translate(0.03125)"/>
</clipPath>
<clipPath id="clip1_6_2803">
<path d="M0.03125 0H24.0312V24H0.03125V0Z" fill="white"/>
</clipPath>
</defs>
</svg>
