<svg width="25" height="24" viewBox="0 0 25 24" fill="none" xmlns="http://www.w3.org/2000/svg">
<g clip-path="url(#clip0_6_2793)">
<g clip-path="url(#clip1_6_2793)">
<path d="M12.7812 3.75C7.80781 3.75 3.70625 7.47188 3.10625 12.2812C3.54687 12.1031 4.025 12 4.53125 12C5.77344 12 6.78125 13.0078 6.78125 14.25V20.25C6.78125 21.4922 5.77344 22.5 4.53125 22.5C2.45937 22.5 0.78125 20.8219 0.78125 18.75V18V15.75V13.5C0.78125 6.87188 6.15313 1.5 12.7812 1.5C19.4094 1.5 24.7812 6.87188 24.7812 13.5V15.75V18V18.75C24.7812 20.8219 23.1031 22.5 21.0312 22.5C19.7891 22.5 18.7812 21.4922 18.7812 20.25V14.25C18.7812 13.0078 19.7891 12 21.0312 12C21.5375 12 22.0156 12.0984 22.4562 12.2812C21.8562 7.47188 17.7547 3.75 12.7812 3.75Z" fill="#4F46E5"/>
</g>
</g>
<defs>
<clipPath id="clip0_6_2793">
<rect width="24" height="24" fill="white" transform="translate(0.78125)"/>
</clipPath>
<clipPath id="clip1_6_2793">
<path d="M0.78125 0H24.7812V24H0.78125V0Z" fill="white"/>
</clipPath>
</defs>
</svg>
