<svg width="31" height="24" viewBox="0 0 31 24" fill="none" xmlns="http://www.w3.org/2000/svg">
<g clip-path="url(#clip0_6_2799)">
<path d="M7 0C7.99456 0 8.94839 0.395088 9.65165 1.09835C10.3549 1.80161 10.75 2.75544 10.75 3.75C10.75 4.74456 10.3549 5.69839 9.65165 6.40165C8.94839 7.10491 7.99456 7.5 7 7.5C6.00544 7.5 5.05161 7.10491 4.34835 6.40165C3.64509 5.69839 3.25 4.74456 3.25 3.75C3.25 2.75544 3.64509 1.80161 4.34835 1.09835C5.05161 0.395088 6.00544 0 7 0ZM24.25 0C25.2446 0 26.1984 0.395088 26.9017 1.09835C27.6049 1.80161 28 2.75544 28 3.75C28 4.74456 27.6049 5.69839 26.9017 6.40165C26.1984 7.10491 25.2446 7.5 24.25 7.5C23.2554 7.5 22.3016 7.10491 21.5983 6.40165C20.8951 5.69839 20.5 4.74456 20.5 3.75C20.5 2.75544 20.8951 1.80161 21.5983 1.09835C22.3016 0.395088 23.2554 0 24.25 0ZM0.25 14.0016C0.25 11.2406 2.49062 9 5.25156 9H7.25312C7.99844 9 8.70625 9.16406 9.34375 9.45469C9.28281 9.79219 9.25469 10.1438 9.25469 10.5C9.25469 12.2906 10.0422 13.8984 11.2844 15C11.275 15 11.2656 15 11.2516 15H1.24844C0.7 15 0.25 14.55 0.25 14.0016ZM19.2484 15C19.2391 15 19.2297 15 19.2156 15C20.4625 13.8984 21.2453 12.2906 21.2453 10.5C21.2453 10.1438 21.2125 9.79687 21.1562 9.45469C21.7938 9.15937 22.5016 9 23.2469 9H25.2484C28.0094 9 30.25 11.2406 30.25 14.0016C30.25 14.5547 29.8 15 29.2516 15H19.2484ZM10.75 10.5C10.75 9.30653 11.2241 8.16193 12.068 7.31802C12.9119 6.47411 14.0565 6 15.25 6C16.4435 6 17.5881 6.47411 18.432 7.31802C19.2759 8.16193 19.75 9.30653 19.75 10.5C19.75 11.6935 19.2759 12.8381 18.432 13.682C17.5881 14.5259 16.4435 15 15.25 15C14.0565 15 12.9119 14.5259 12.068 13.682C11.2241 12.8381 10.75 11.6935 10.75 10.5ZM6.25 22.7484C6.25 19.2984 9.04844 16.5 12.4984 16.5H18.0016C21.4516 16.5 24.25 19.2984 24.25 22.7484C24.25 23.4375 23.6922 24 22.9984 24H7.50156C6.8125 24 6.25 23.4422 6.25 22.7484Z" fill="#4F46E5"/>
</g>
<defs>
<clipPath id="clip0_6_2799">
<path d="M0.25 0H30.25V24H0.25V0Z" fill="white"/>
</clipPath>
</defs>
</svg>
